<mxfile host="Electron" modified="2024-02-15T00:37:14.497Z" agent="Mozilla/5.0 (Macintosh; Intel Mac OS X 10_15_7) AppleWebKit/537.36 (KHTML, like Gecko) draw.io/23.0.2 Chrome/120.0.6099.109 Electron/28.1.0 Safari/537.36" etag="_GJruV8ApdBWPl4d76Rn" version="23.0.2" type="device">
  <diagram name="페이지-1" id="bCzMda1ipVNOEat1_-SN">
    <mxGraphModel dx="1802" dy="1214" grid="1" gridSize="10" guides="1" tooltips="1" connect="1" arrows="1" fold="1" page="1" pageScale="1" pageWidth="827" pageHeight="1169" math="0" shadow="0">
      <root>
        <mxCell id="0" />
        <mxCell id="1" parent="0" />
        <mxCell id="q4eIJz-ZA4b0TVjow9e_-5" style="edgeStyle=orthogonalEdgeStyle;rounded=0;orthogonalLoop=1;jettySize=auto;html=1;entryX=0.5;entryY=1;entryDx=0;entryDy=0;endArrow=block;endFill=1;" edge="1" parent="1" source="q4eIJz-ZA4b0TVjow9e_-1" target="q4eIJz-ZA4b0TVjow9e_-3">
          <mxGeometry relative="1" as="geometry" />
        </mxCell>
        <mxCell id="q4eIJz-ZA4b0TVjow9e_-6" value="확장" style="edgeLabel;html=1;align=center;verticalAlign=middle;resizable=0;points=[];" vertex="1" connectable="0" parent="q4eIJz-ZA4b0TVjow9e_-5">
          <mxGeometry x="-0.09" y="1" relative="1" as="geometry">
            <mxPoint y="1" as="offset" />
          </mxGeometry>
        </mxCell>
        <mxCell id="q4eIJz-ZA4b0TVjow9e_-11" value="" style="edgeStyle=orthogonalEdgeStyle;rounded=0;orthogonalLoop=1;jettySize=auto;html=1;" edge="1" parent="1" source="q4eIJz-ZA4b0TVjow9e_-1" target="q4eIJz-ZA4b0TVjow9e_-4">
          <mxGeometry relative="1" as="geometry" />
        </mxCell>
        <mxCell id="q4eIJz-ZA4b0TVjow9e_-1" value="&lt;b&gt;&lt;font style=&quot;font-size: 14px;&quot;&gt;Authentication&lt;/font&gt;&lt;/b&gt;&lt;br&gt;&amp;lt;&amp;lt;Interface&amp;gt;&amp;gt;" style="rounded=0;whiteSpace=wrap;html=1;fontFamily=Helvetica;" vertex="1" parent="1">
          <mxGeometry x="210" y="250" width="240" height="50" as="geometry" />
        </mxCell>
        <mxCell id="q4eIJz-ZA4b0TVjow9e_-2" value="&lt;div style=&quot;&quot;&gt;&lt;b style=&quot;background-color: initial;&quot;&gt;&lt;font style=&quot;font-size: 14px;&quot;&gt;Principal&lt;/font&gt;&lt;/b&gt;&lt;/div&gt;&amp;lt;&amp;lt;Interface&amp;gt;&amp;gt;" style="rounded=0;whiteSpace=wrap;html=1;" vertex="1" parent="1">
          <mxGeometry x="269" y="70" width="120" height="50" as="geometry" />
        </mxCell>
        <mxCell id="q4eIJz-ZA4b0TVjow9e_-3" value="getName()" style="rounded=0;whiteSpace=wrap;html=1;align=left;spacing=5;spacingLeft=10;" vertex="1" parent="1">
          <mxGeometry x="269" y="120" width="120" height="30" as="geometry" />
        </mxCell>
        <mxCell id="q4eIJz-ZA4b0TVjow9e_-4" value="&lt;span style=&quot;color: rgb(0, 0, 0); font-family: Helvetica; font-size: 12px; font-style: normal; font-variant-ligatures: normal; font-variant-caps: normal; font-weight: 400; letter-spacing: normal; orphans: 2; text-indent: 0px; text-transform: none; widows: 2; word-spacing: 0px; -webkit-text-stroke-width: 0px; background-color: rgb(251, 251, 251); text-decoration-thickness: initial; text-decoration-style: initial; text-decoration-color: initial; float: none; display: inline !important;&quot;&gt;getCredentials()&lt;br&gt;&lt;/span&gt;getAuthorities()&lt;br style=&quot;border-color: var(--border-color); color: rgb(0, 0, 0); font-family: Helvetica; font-size: 12px; font-style: normal; font-variant-ligatures: normal; font-variant-caps: normal; font-weight: 400; letter-spacing: normal; orphans: 2; text-indent: 0px; text-transform: none; widows: 2; word-spacing: 0px; -webkit-text-stroke-width: 0px; background-color: rgb(251, 251, 251); text-decoration-thickness: initial; text-decoration-style: initial; text-decoration-color: initial;&quot;&gt;&lt;span style=&quot;border-color: var(--border-color); font-family: Helvetica; font-style: normal; font-variant-ligatures: normal; font-variant-caps: normal; font-weight: 400; letter-spacing: normal; orphans: 2; text-indent: 0px; text-transform: none; widows: 2; word-spacing: 0px; -webkit-text-stroke-width: 0px; text-decoration-thickness: initial; text-decoration-style: initial; text-decoration-color: initial; font-size: 9.8pt; background-color: rgb(255, 255, 255); color: rgb(8, 8, 8);&quot;&gt;getDetails()&lt;br style=&quot;border-color: var(--border-color);&quot;&gt;&lt;/span&gt;&lt;div style=&quot;border-color: var(--border-color); font-family: Helvetica; font-size: 12px; font-style: normal; font-variant-ligatures: normal; font-variant-caps: normal; font-weight: 400; letter-spacing: normal; orphans: 2; text-indent: 0px; text-transform: none; widows: 2; word-spacing: 0px; -webkit-text-stroke-width: 0px; text-decoration-thickness: initial; text-decoration-style: initial; text-decoration-color: initial; background-color: rgb(255, 255, 255); color: rgb(8, 8, 8);&quot;&gt;&lt;div style=&quot;border-color: var(--border-color); font-size: 9.8pt;&quot;&gt;getPrincipal()&lt;/div&gt;&lt;div style=&quot;border-color: var(--border-color); font-size: 9.8pt;&quot;&gt;&lt;div style=&quot;border-color: var(--border-color);&quot;&gt;&lt;div style=&quot;border-color: var(--border-color); font-size: 9.8pt;&quot;&gt;isAuthenticated()&lt;/div&gt;&lt;div style=&quot;border-color: var(--border-color); font-size: 9.8pt;&quot;&gt;setAuthenticated(is Authenticated)&lt;/div&gt;&lt;/div&gt;&lt;/div&gt;&lt;/div&gt;" style="rounded=0;whiteSpace=wrap;html=1;align=left;spacing=5;spacingLeft=10;" vertex="1" parent="1">
          <mxGeometry x="210" y="300" width="240" height="100" as="geometry" />
        </mxCell>
        <mxCell id="q4eIJz-ZA4b0TVjow9e_-7" value="인증하려는 사용자는 최소한 이름이 있어야 함" style="text;html=1;strokeColor=#82b366;fillColor=#d5e8d4;align=center;verticalAlign=middle;whiteSpace=wrap;rounded=1;" vertex="1" parent="1">
          <mxGeometry x="10" y="110" width="140" height="40" as="geometry" />
        </mxCell>
        <mxCell id="q4eIJz-ZA4b0TVjow9e_-9" value="스프링 시큐리티에서 인증하려면 &lt;br&gt;사용자는 비밀 (암호, 코드, 지문..) 도 있어야 함" style="rounded=1;whiteSpace=wrap;html=1;fillColor=#d5e8d4;strokeColor=#82b366;" vertex="1" parent="1">
          <mxGeometry x="-110" y="280" width="230" height="50" as="geometry" />
        </mxCell>
        <mxCell id="q4eIJz-ZA4b0TVjow9e_-10" value="인증 후에 사용자의 이용 권리를 알아야 함&lt;br&gt;&lt;br&gt;스프링 시큐리티에서 이용 권리는 권한으로 나타냄" style="rounded=1;whiteSpace=wrap;html=1;fillColor=#d5e8d4;strokeColor=#82b366;" vertex="1" parent="1">
          <mxGeometry x="-110" y="360" width="250" height="50" as="geometry" />
        </mxCell>
        <mxCell id="q4eIJz-ZA4b0TVjow9e_-12" value="요청에 대한 추가 정보가 필요하면 &lt;br&gt;getDetails() 메서드를 재정의하여 제공 가능" style="rounded=1;whiteSpace=wrap;html=1;fillColor=#d5e8d4;strokeColor=#82b366;" vertex="1" parent="1">
          <mxGeometry x="510" y="260" width="250" height="50" as="geometry" />
        </mxCell>
        <mxCell id="q4eIJz-ZA4b0TVjow9e_-13" value="인증 객체가 인증됐거나&lt;br&gt;인증 프로세스가 진행 중임을 나타냄" style="rounded=1;whiteSpace=wrap;html=1;fillColor=#d5e8d4;strokeColor=#82b366;" vertex="1" parent="1">
          <mxGeometry x="510" y="350" width="250" height="50" as="geometry" />
        </mxCell>
        <mxCell id="q4eIJz-ZA4b0TVjow9e_-15" value="" style="endArrow=block;html=1;rounded=0;endFill=1;fillColor=#d5e8d4;strokeColor=#82b366;exitX=1;exitY=0.5;exitDx=0;exitDy=0;" edge="1" parent="1" source="q4eIJz-ZA4b0TVjow9e_-9">
          <mxGeometry width="50" height="50" relative="1" as="geometry">
            <mxPoint x="30" y="232" as="sourcePoint" />
            <mxPoint x="220" y="312" as="targetPoint" />
          </mxGeometry>
        </mxCell>
        <mxCell id="q4eIJz-ZA4b0TVjow9e_-16" value="" style="endArrow=block;html=1;rounded=0;endFill=1;fillColor=#d5e8d4;strokeColor=#82b366;entryX=0;entryY=0.25;entryDx=0;entryDy=0;exitX=1;exitY=0.5;exitDx=0;exitDy=0;" edge="1" parent="1" source="q4eIJz-ZA4b0TVjow9e_-10">
          <mxGeometry width="50" height="50" relative="1" as="geometry">
            <mxPoint x="60" y="420" as="sourcePoint" />
            <mxPoint x="220" y="325" as="targetPoint" />
          </mxGeometry>
        </mxCell>
        <mxCell id="q4eIJz-ZA4b0TVjow9e_-17" value="" style="endArrow=block;html=1;rounded=0;endFill=1;fillColor=#d5e8d4;strokeColor=#82b366;exitX=0;exitY=0.5;exitDx=0;exitDy=0;" edge="1" parent="1" source="q4eIJz-ZA4b0TVjow9e_-12">
          <mxGeometry width="50" height="50" relative="1" as="geometry">
            <mxPoint x="605" y="321" as="sourcePoint" />
            <mxPoint x="295" y="341" as="targetPoint" />
          </mxGeometry>
        </mxCell>
        <mxCell id="q4eIJz-ZA4b0TVjow9e_-18" value="" style="endArrow=block;html=1;rounded=0;endFill=1;fillColor=#d5e8d4;strokeColor=#82b366;exitX=0;exitY=0.5;exitDx=0;exitDy=0;" edge="1" parent="1" source="q4eIJz-ZA4b0TVjow9e_-13">
          <mxGeometry width="50" height="50" relative="1" as="geometry">
            <mxPoint x="504" y="354" as="sourcePoint" />
            <mxPoint x="324" y="374" as="targetPoint" />
          </mxGeometry>
        </mxCell>
        <mxCell id="q4eIJz-ZA4b0TVjow9e_-19" value="" style="endArrow=block;html=1;rounded=0;endFill=1;fillColor=#d5e8d4;strokeColor=#82b366;exitX=1;exitY=0.5;exitDx=0;exitDy=0;" edge="1" parent="1" source="q4eIJz-ZA4b0TVjow9e_-7">
          <mxGeometry width="50" height="50" relative="1" as="geometry">
            <mxPoint x="42" y="172" as="sourcePoint" />
            <mxPoint x="266" y="136.50704225352115" as="targetPoint" />
          </mxGeometry>
        </mxCell>
      </root>
    </mxGraphModel>
  </diagram>
</mxfile>
